<svg width="151" height="151" viewBox="0 0 151 151" fill="none" xmlns="http://www.w3.org/2000/svg">
<g clip-path="url(#clip0_89_10)">
<path d="M146.46 98.3886C144.696 95.8697 142.057 94.1886 139.029 93.6553L130.291 92.1138L120.365 148.41L129.102 149.95C129.777 150.069 130.454 150.128 131.127 150.128C133.467 150.128 135.748 149.413 137.705 148.043C140.224 146.28 141.905 143.641 142.439 140.612L148.367 106.991C148.902 103.963 148.224 100.907 146.46 98.3886V98.3886Z" fill="white"/>
<path d="M114.048 86.0472C109.606 85.2645 105.126 86.2578 101.432 88.8442C97.7374 91.4305 95.2712 95.3021 94.4885 99.7435L89.3306 128.996C88.5467 133.437 89.54 137.918 92.1275 141.612C94.7139 145.307 98.5843 147.772 103.026 148.555L111.148 149.988L122.169 87.48L114.048 86.0472Z" fill="white"/>
<path d="M55.6506 99.7424C54.8667 95.302 52.4017 91.4305 48.7064 88.8441C45.0122 86.2578 40.5318 85.2633 36.0904 86.0472L27.9697 87.4789L38.9915 149.987L47.1122 148.555C51.5537 147.772 55.424 145.306 58.0116 141.612C60.5979 137.918 61.5913 133.437 60.8085 128.996L55.6506 99.7424Z" fill="white"/>
<path d="M11.1091 93.6553C8.081 94.1886 5.44199 95.8697 3.67846 98.3886C1.91492 100.907 1.23743 103.963 1.77073 106.991L7.69991 140.613C8.2332 143.641 9.91434 146.28 12.4332 148.043C14.3913 149.414 16.6721 150.128 19.0124 150.128C19.6842 150.128 20.3605 150.069 21.0357 149.951L29.7733 148.41L19.8478 92.1138L11.1091 93.6553Z" fill="white"/>
<path d="M142.206 85.3503C142.322 81.5589 142.131 77.7525 141.628 73.9508C145.315 71.5361 147.443 67.0947 146.678 62.4735C143.833 45.2834 135.173 29.542 122.292 18.1483C109.156 6.52795 92.385 0.128418 75.069 0.128418C57.7541 0.128418 40.9827 6.52795 27.8461 18.1483C14.9646 29.542 6.30485 45.2834 3.46099 62.4735C2.69653 67.0947 4.82284 71.5361 8.51127 73.9508C8.00659 77.7525 7.81547 81.5589 7.93335 85.3503C8.47465 85.2095 9.02282 85.0836 9.5813 84.9852L16.7064 83.7287C16.6824 81.0107 16.838 78.2847 17.179 75.5599C21.6479 74.5951 25.3043 70.9971 26.0951 66.2192C30.2322 41.2173 50.8281 23.0704 75.069 23.0704C99.3098 23.0704 119.907 41.2173 124.044 66.2192C124.83 70.9719 128.419 74.61 132.96 75.5679C133.301 78.2893 133.457 81.013 133.433 83.7287L140.558 84.9852C141.115 85.0836 141.663 85.2095 142.206 85.3503V85.3503Z" fill="white"/>
</g>
<defs>
<clipPath id="clip0_89_10">
<rect width="150" height="150" fill="white" transform="translate(0.128479 0.128418)"/>
</clipPath>
</defs>
</svg>
